<mxfile host="app.diagrams.net" agent="Mozilla/5.0 (Windows NT 10.0; Win64; x64) AppleWebKit/537.36 (KHTML, like Gecko) Chrome/134.0.0.0 Safari/537.36" version="26.2.9">
  <diagram name="PÃ¡gina-1" id="tseR-BPoztX5uIfRD1EI">
    <mxGraphModel dx="868" dy="477" grid="1" gridSize="10" guides="1" tooltips="1" connect="1" arrows="1" fold="1" page="1" pageScale="1" pageWidth="827" pageHeight="1169" math="0" shadow="0">
      <root>
        <mxCell id="0" />
        <mxCell id="1" parent="0" />
        <mxCell id="XU2VylWFoMoPEVJpkFGp-1" value="App Banco" style="whiteSpace=wrap;html=1;align=left;verticalAlign=top;" vertex="1" parent="1">
          <mxGeometry x="160" y="20" width="510" height="800" as="geometry" />
        </mxCell>
        <mxCell id="XU2VylWFoMoPEVJpkFGp-2" value="usuario" style="shape=umlActor;verticalLabelPosition=bottom;verticalAlign=top;html=1;outlineConnect=0;" vertex="1" parent="1">
          <mxGeometry x="40" y="200" width="30" height="60" as="geometry" />
        </mxCell>
        <mxCell id="XU2VylWFoMoPEVJpkFGp-3" value="Login Usuario" style="ellipse;whiteSpace=wrap;html=1;" vertex="1" parent="1">
          <mxGeometry x="180" y="60" width="140" height="70" as="geometry" />
        </mxCell>
        <mxCell id="XU2VylWFoMoPEVJpkFGp-4" value="" style="endArrow=none;html=1;rounded=0;entryX=0;entryY=0.5;entryDx=0;entryDy=0;" edge="1" parent="1" target="XU2VylWFoMoPEVJpkFGp-3">
          <mxGeometry width="50" height="50" relative="1" as="geometry">
            <mxPoint x="70" y="180" as="sourcePoint" />
            <mxPoint x="440" y="130" as="targetPoint" />
          </mxGeometry>
        </mxCell>
        <mxCell id="XU2VylWFoMoPEVJpkFGp-5" value="Ver saldo" style="ellipse;whiteSpace=wrap;html=1;" vertex="1" parent="1">
          <mxGeometry x="180" y="190" width="140" height="70" as="geometry" />
        </mxCell>
        <mxCell id="XU2VylWFoMoPEVJpkFGp-6" value="" style="endArrow=none;html=1;rounded=0;exitX=1;exitY=0.3333333333333333;exitDx=0;exitDy=0;exitPerimeter=0;entryX=0;entryY=0.5;entryDx=0;entryDy=0;" edge="1" parent="1" source="XU2VylWFoMoPEVJpkFGp-2" target="XU2VylWFoMoPEVJpkFGp-5">
          <mxGeometry width="50" height="50" relative="1" as="geometry">
            <mxPoint x="390" y="180" as="sourcePoint" />
            <mxPoint x="440" y="130" as="targetPoint" />
            <Array as="points" />
          </mxGeometry>
        </mxCell>
        <mxCell id="XU2VylWFoMoPEVJpkFGp-7" value="Hacer Transferencia" style="ellipse;whiteSpace=wrap;html=1;" vertex="1" parent="1">
          <mxGeometry x="180" y="300" width="140" height="70" as="geometry" />
        </mxCell>
        <mxCell id="XU2VylWFoMoPEVJpkFGp-8" value="" style="endArrow=none;html=1;rounded=0;exitX=1;exitY=0.3333333333333333;exitDx=0;exitDy=0;exitPerimeter=0;entryX=0;entryY=0.5;entryDx=0;entryDy=0;" edge="1" parent="1" source="XU2VylWFoMoPEVJpkFGp-2" target="XU2VylWFoMoPEVJpkFGp-7">
          <mxGeometry width="50" height="50" relative="1" as="geometry">
            <mxPoint x="90" y="150" as="sourcePoint" />
            <mxPoint x="180" y="300" as="targetPoint" />
          </mxGeometry>
        </mxCell>
        <mxCell id="XU2VylWFoMoPEVJpkFGp-9" value="Verificar Saldo" style="ellipse;whiteSpace=wrap;html=1;" vertex="1" parent="1">
          <mxGeometry x="490" y="190" width="140" height="70" as="geometry" />
        </mxCell>
        <mxCell id="XU2VylWFoMoPEVJpkFGp-11" value="Banco" style="shape=umlActor;verticalLabelPosition=bottom;verticalAlign=top;html=1;outlineConnect=0;" vertex="1" parent="1">
          <mxGeometry x="760" y="200" width="30" height="60" as="geometry" />
        </mxCell>
        <mxCell id="XU2VylWFoMoPEVJpkFGp-14" value="" style="endArrow=none;html=1;rounded=0;exitX=1;exitY=0.5;exitDx=0;exitDy=0;entryX=0;entryY=0.3333333333333333;entryDx=0;entryDy=0;entryPerimeter=0;" edge="1" parent="1" source="XU2VylWFoMoPEVJpkFGp-9" target="XU2VylWFoMoPEVJpkFGp-11">
          <mxGeometry width="50" height="50" relative="1" as="geometry">
            <mxPoint x="90" y="150" as="sourcePoint" />
            <mxPoint x="190" y="265" as="targetPoint" />
          </mxGeometry>
        </mxCell>
        <mxCell id="XU2VylWFoMoPEVJpkFGp-18" value="Verificar Password" style="ellipse;whiteSpace=wrap;html=1;" vertex="1" parent="1">
          <mxGeometry x="490" y="30" width="140" height="70" as="geometry" />
        </mxCell>
        <mxCell id="XU2VylWFoMoPEVJpkFGp-20" value="include" style="text;html=1;align=center;verticalAlign=middle;whiteSpace=wrap;rounded=0;rotation=-15;" vertex="1" parent="1">
          <mxGeometry x="360" y="60" width="60" height="30" as="geometry" />
        </mxCell>
        <mxCell id="XU2VylWFoMoPEVJpkFGp-21" value="Login Error" style="ellipse;whiteSpace=wrap;html=1;" vertex="1" parent="1">
          <mxGeometry x="490" y="110" width="140" height="70" as="geometry" />
        </mxCell>
        <mxCell id="XU2VylWFoMoPEVJpkFGp-24" value="extend" style="text;html=1;align=center;verticalAlign=middle;whiteSpace=wrap;rounded=0;rotation=15;" vertex="1" parent="1">
          <mxGeometry x="384" y="100" width="60" height="30" as="geometry" />
        </mxCell>
        <mxCell id="XU2VylWFoMoPEVJpkFGp-25" value="include" style="text;html=1;align=center;verticalAlign=middle;whiteSpace=wrap;rounded=0;rotation=-30;" vertex="1" parent="1">
          <mxGeometry x="360" y="260" width="60" height="30" as="geometry" />
        </mxCell>
        <mxCell id="XU2VylWFoMoPEVJpkFGp-26" value="Pagar" style="ellipse;whiteSpace=wrap;html=1;" vertex="1" parent="1">
          <mxGeometry x="180" y="390" width="140" height="70" as="geometry" />
        </mxCell>
        <mxCell id="XU2VylWFoMoPEVJpkFGp-27" value="" style="endArrow=none;html=1;rounded=0;exitX=1;exitY=0.3333333333333333;exitDx=0;exitDy=0;exitPerimeter=0;entryX=0;entryY=0.5;entryDx=0;entryDy=0;" edge="1" parent="1" source="XU2VylWFoMoPEVJpkFGp-2" target="XU2VylWFoMoPEVJpkFGp-26">
          <mxGeometry width="50" height="50" relative="1" as="geometry">
            <mxPoint x="80" y="230" as="sourcePoint" />
            <mxPoint x="190" y="345" as="targetPoint" />
          </mxGeometry>
        </mxCell>
        <mxCell id="XU2VylWFoMoPEVJpkFGp-28" value="" style="endArrow=none;html=1;rounded=0;exitX=1;exitY=0.5;exitDx=0;exitDy=0;entryX=0.5;entryY=0.5;entryDx=0;entryDy=0;entryPerimeter=0;" edge="1" parent="1" source="XU2VylWFoMoPEVJpkFGp-7" target="XU2VylWFoMoPEVJpkFGp-11">
          <mxGeometry width="50" height="50" relative="1" as="geometry">
            <mxPoint x="390" y="310" as="sourcePoint" />
            <mxPoint x="440" y="260" as="targetPoint" />
          </mxGeometry>
        </mxCell>
        <mxCell id="XU2VylWFoMoPEVJpkFGp-29" value="Credito" style="ellipse;whiteSpace=wrap;html=1;" vertex="1" parent="1">
          <mxGeometry x="180" y="515" width="140" height="70" as="geometry" />
        </mxCell>
        <mxCell id="XU2VylWFoMoPEVJpkFGp-30" value="Debito" style="ellipse;whiteSpace=wrap;html=1;" vertex="1" parent="1">
          <mxGeometry x="330" y="515" width="140" height="70" as="geometry" />
        </mxCell>
        <mxCell id="XU2VylWFoMoPEVJpkFGp-33" value="" style="endArrow=open;endSize=12;dashed=1;html=1;rounded=0;exitX=1;exitY=0.5;exitDx=0;exitDy=0;entryX=0;entryY=0.5;entryDx=0;entryDy=0;" edge="1" parent="1" source="XU2VylWFoMoPEVJpkFGp-5" target="XU2VylWFoMoPEVJpkFGp-9">
          <mxGeometry width="160" relative="1" as="geometry">
            <mxPoint x="440" y="280" as="sourcePoint" />
            <mxPoint x="600" y="280" as="targetPoint" />
          </mxGeometry>
        </mxCell>
        <mxCell id="XU2VylWFoMoPEVJpkFGp-35" value="" style="endArrow=open;endSize=12;dashed=1;html=1;rounded=0;exitX=1;exitY=0.5;exitDx=0;exitDy=0;entryX=0;entryY=0.5;entryDx=0;entryDy=0;" edge="1" parent="1" source="XU2VylWFoMoPEVJpkFGp-3" target="XU2VylWFoMoPEVJpkFGp-18">
          <mxGeometry width="160" relative="1" as="geometry">
            <mxPoint x="330" y="235" as="sourcePoint" />
            <mxPoint x="500" y="235" as="targetPoint" />
          </mxGeometry>
        </mxCell>
        <mxCell id="XU2VylWFoMoPEVJpkFGp-36" value="" style="endArrow=open;endSize=12;dashed=1;html=1;rounded=0;exitX=0;exitY=0.5;exitDx=0;exitDy=0;entryX=1;entryY=0.5;entryDx=0;entryDy=0;" edge="1" parent="1" source="XU2VylWFoMoPEVJpkFGp-21" target="XU2VylWFoMoPEVJpkFGp-3">
          <mxGeometry width="160" relative="1" as="geometry">
            <mxPoint x="340" y="245" as="sourcePoint" />
            <mxPoint x="510" y="245" as="targetPoint" />
          </mxGeometry>
        </mxCell>
        <mxCell id="XU2VylWFoMoPEVJpkFGp-37" value="include" style="text;html=1;align=center;verticalAlign=middle;whiteSpace=wrap;rounded=0;rotation=0;" vertex="1" parent="1">
          <mxGeometry x="354" y="200" width="60" height="30" as="geometry" />
        </mxCell>
        <mxCell id="XU2VylWFoMoPEVJpkFGp-38" value="" style="endArrow=open;endSize=12;dashed=1;html=1;rounded=0;exitX=1;exitY=0.5;exitDx=0;exitDy=0;entryX=0;entryY=0.5;entryDx=0;entryDy=0;" edge="1" parent="1" source="XU2VylWFoMoPEVJpkFGp-7" target="XU2VylWFoMoPEVJpkFGp-9">
          <mxGeometry width="160" relative="1" as="geometry">
            <mxPoint x="330" y="235" as="sourcePoint" />
            <mxPoint x="500" y="235" as="targetPoint" />
          </mxGeometry>
        </mxCell>
        <mxCell id="XU2VylWFoMoPEVJpkFGp-39" value="" style="endArrow=none;html=1;rounded=0;exitX=0.5;exitY=0;exitDx=0;exitDy=0;entryX=0.5;entryY=0;entryDx=0;entryDy=0;" edge="1" parent="1" source="XU2VylWFoMoPEVJpkFGp-30" target="XU2VylWFoMoPEVJpkFGp-29">
          <mxGeometry width="50" height="50" relative="1" as="geometry">
            <mxPoint x="490" y="510" as="sourcePoint" />
            <mxPoint x="540" y="460" as="targetPoint" />
            <Array as="points">
              <mxPoint x="400" y="500" />
              <mxPoint x="320" y="500" />
              <mxPoint x="250" y="500" />
            </Array>
          </mxGeometry>
        </mxCell>
        <mxCell id="XU2VylWFoMoPEVJpkFGp-40" value="" style="endArrow=block;endSize=16;endFill=0;html=1;rounded=0;entryX=0.5;entryY=1;entryDx=0;entryDy=0;" edge="1" parent="1" target="XU2VylWFoMoPEVJpkFGp-26">
          <mxGeometry x="-0.0077" width="160" relative="1" as="geometry">
            <mxPoint x="320" y="500" as="sourcePoint" />
            <mxPoint x="600" y="580" as="targetPoint" />
            <mxPoint as="offset" />
          </mxGeometry>
        </mxCell>
        <mxCell id="XU2VylWFoMoPEVJpkFGp-41" value="Nota; Falta Verificar limite de tarjeta" style="shape=note2;boundedLbl=1;whiteSpace=wrap;html=1;size=25;verticalAlign=top;align=center;" vertex="1" parent="1">
          <mxGeometry x="360" y="680" width="120" height="60" as="geometry" />
        </mxCell>
        <mxCell id="XU2VylWFoMoPEVJpkFGp-42" value="" style="endArrow=none;html=1;rounded=0;exitX=0.5;exitY=1;exitDx=0;exitDy=0;" edge="1" parent="1" source="XU2VylWFoMoPEVJpkFGp-29" target="XU2VylWFoMoPEVJpkFGp-44">
          <mxGeometry width="50" height="50" relative="1" as="geometry">
            <mxPoint x="490" y="610" as="sourcePoint" />
            <mxPoint x="540" y="560" as="targetPoint" />
            <Array as="points">
              <mxPoint x="250" y="650" />
              <mxPoint x="460" y="650" />
            </Array>
          </mxGeometry>
        </mxCell>
        <mxCell id="XU2VylWFoMoPEVJpkFGp-43" value="" style="endArrow=none;html=1;rounded=0;exitX=0;exitY=0;exitDx=47.5;exitDy=0;exitPerimeter=0;" edge="1" parent="1" source="XU2VylWFoMoPEVJpkFGp-41">
          <mxGeometry width="50" height="50" relative="1" as="geometry">
            <mxPoint x="490" y="610" as="sourcePoint" />
            <mxPoint x="420" y="650" as="targetPoint" />
          </mxGeometry>
        </mxCell>
        <mxCell id="XU2VylWFoMoPEVJpkFGp-44" value="Tarjeta" style="shape=umlActor;verticalLabelPosition=bottom;verticalAlign=top;html=1;outlineConnect=0;" vertex="1" parent="1">
          <mxGeometry x="700" y="610" width="30" height="60" as="geometry" />
        </mxCell>
        <mxCell id="XU2VylWFoMoPEVJpkFGp-45" value="" style="endArrow=none;html=1;rounded=0;exitX=1;exitY=0.5;exitDx=0;exitDy=0;" edge="1" parent="1" source="XU2VylWFoMoPEVJpkFGp-30" target="XU2VylWFoMoPEVJpkFGp-11">
          <mxGeometry width="50" height="50" relative="1" as="geometry">
            <mxPoint x="490" y="510" as="sourcePoint" />
            <mxPoint x="540" y="460" as="targetPoint" />
          </mxGeometry>
        </mxCell>
        <mxCell id="XU2VylWFoMoPEVJpkFGp-46" value="" style="endArrow=block;dashed=1;endFill=0;endSize=12;html=1;rounded=0;exitX=0.807;exitY=0.143;exitDx=0;exitDy=0;exitPerimeter=0;entryX=0.5;entryY=1;entryDx=0;entryDy=0;" edge="1" parent="1" source="XU2VylWFoMoPEVJpkFGp-30" target="XU2VylWFoMoPEVJpkFGp-9">
          <mxGeometry width="160" relative="1" as="geometry">
            <mxPoint x="440" y="380" as="sourcePoint" />
            <mxPoint x="600" y="380" as="targetPoint" />
          </mxGeometry>
        </mxCell>
      </root>
    </mxGraphModel>
  </diagram>
</mxfile>
